<svg xmlns="http://www.w3.org/2000/svg" viewBox="0 0 512 512">
  <defs>
    <linearGradient id="bellGradient" x1="0%" y1="0%" x2="0%" y2="100%">
      <stop offset="0%" style="stop-color:#FFE600"/>
      <stop offset="100%" style="stop-color:#FFCC00"/>
    </linearGradient>
    <linearGradient id="codeGradient" x1="0%" y1="0%" x2="100%" y2="0%">
      <stop offset="0%" style="stop-color:#2D2D2D"/>
      <stop offset="100%" style="stop-color:#3D3D3D"/>
    </linearGradient>
    <filter id="shadow" x="-20%" y="-20%" width="140%" height="140%">
      <feDropShadow dx="0" dy="4" stdDeviation="8" flood-opacity="0.25"/>
    </filter>
  </defs>
  
  <circle cx="256" cy="256" r="240" fill="url(#bellGradient)" filter="url(#shadow)"/>
  
  <g fill="#2D2D2D">
    <path d="M256 80c-8.8 0-16 7.2-16 16v16.1c-55.5 9.3-96 56.9-96 114.4v66.5c0 17-6.7 33.3-18.7 45.3L112 352v16h288v-16l-13.3-13.7c-12-12-18.7-28.3-18.7-45.3v-66.5c0-57.5-40.5-105.1-96-114.4V96c0-8.8-7.2-16-16-16z"/>
    <path d="M256 432c26.5 0 48-21.5 48-48H208c0 26.5 21.5 48 48 48z"/>
  </g>
  
  <g transform="translate(320, 320)">
    <rect x="0" y="0" width="120" height="72" rx="12" fill="#FFFFFF" stroke="#2D2D2D" stroke-width="4"/>
    <rect x="16" y="16" width="56" height="8" rx="4" fill="#2D2D2D"/>
    <rect x="16" y="32" width="88" height="8" rx="4" fill="#FFE600"/>
    <rect x="16" y="48" width="40" height="8" rx="4" fill="#2D2D2D"/>
  </g>
</svg>
